<svg width="255" height="74" viewBox="0 0 255 74" fill="none" xmlns="http://www.w3.org/2000/svg">
<path d="M14.06 47C13.86 47 13.69 46.93 13.55 46.79C13.41 46.65 13.34 46.48 13.34 46.28V26.75C13.34 26.53 13.41 26.35 13.55 26.21C13.69 26.07 13.86 26 14.06 26H16.7C16.92 26 17.1 26.07 17.24 26.21C17.38 26.35 17.45 26.53 17.45 26.75V33.77L24.23 26.54C24.31 26.44 24.44 26.33 24.62 26.21C24.82 26.07 25.08 26 25.4 26H28.37C28.53 26 28.67 26.06 28.79 26.18C28.93 26.3 29 26.45 29 26.63C29 26.77 28.96 26.89 28.88 26.99L20.63 36.05L29.45 45.98C29.55 46.1 29.6 46.23 29.6 46.37C29.6 46.55 29.53 46.7 29.39 46.82C29.27 46.94 29.13 47 28.97 47H25.88C25.54 47 25.27 46.93 25.07 46.79C24.89 46.63 24.77 46.52 24.71 46.46L17.45 38.51V46.28C17.45 46.48 17.38 46.65 17.24 46.79C17.1 46.93 16.92 47 16.7 47H14.06ZM37.9562 47.3C36.3562 47.3 35.0062 47.02 33.9062 46.46C32.8262 45.9 31.9962 45.11 31.4162 44.09C30.8562 43.07 30.5362 41.88 30.4562 40.52C30.4362 40.16 30.4262 39.72 30.4262 39.2C30.4262 38.68 30.4362 38.24 30.4562 37.88C30.5362 36.5 30.8662 35.31 31.4462 34.31C32.0462 33.29 32.8862 32.5 33.9662 31.94C35.0662 31.38 36.3962 31.1 37.9562 31.1C39.5162 31.1 40.8362 31.38 41.9162 31.94C43.0162 32.5 43.8562 33.29 44.4362 34.31C45.0362 35.31 45.3762 36.5 45.4562 37.88C45.4762 38.24 45.4862 38.68 45.4862 39.2C45.4862 39.72 45.4762 40.16 45.4562 40.52C45.3762 41.88 45.0462 43.07 44.4662 44.09C43.9062 45.11 43.0762 45.9 41.9762 46.46C40.8962 47.02 39.5562 47.3 37.9562 47.3ZM37.9562 44.33C39.0162 44.33 39.8362 44 40.4162 43.34C40.9962 42.66 41.3162 41.67 41.3762 40.37C41.3962 40.07 41.4062 39.68 41.4062 39.2C41.4062 38.72 41.3962 38.33 41.3762 38.03C41.3162 36.75 40.9962 35.77 40.4162 35.09C39.8362 34.41 39.0162 34.07 37.9562 34.07C36.8962 34.07 36.0762 34.41 35.4962 35.09C34.9162 35.77 34.5962 36.75 34.5362 38.03C34.5162 38.33 34.5062 38.72 34.5062 39.2C34.5062 39.68 34.5162 40.07 34.5362 40.37C34.5962 41.67 34.9162 42.66 35.4962 43.34C36.0762 44 36.8962 44.33 37.9562 44.33ZM49.5301 47C49.3301 47 49.1601 46.93 49.0201 46.79C48.8801 46.65 48.8101 46.48 48.8101 46.28V32.12C48.8101 31.92 48.8801 31.75 49.0201 31.61C49.1601 31.47 49.3301 31.4 49.5301 31.4H51.8701C52.0701 31.4 52.2401 31.47 52.3801 31.61C52.5201 31.75 52.5901 31.92 52.5901 32.12V33.14C53.0101 32.58 53.5701 32.11 54.2701 31.73C54.9901 31.33 55.8401 31.12 56.8201 31.1C59.1001 31.06 60.6901 31.95 61.5901 33.77C62.0501 32.97 62.7101 32.33 63.5701 31.85C64.4501 31.35 65.4201 31.1 66.4801 31.1C67.5201 31.1 68.4601 31.34 69.3001 31.82C70.1601 32.3 70.8301 33.03 71.3101 34.01C71.8101 34.97 72.0601 36.19 72.0601 37.67V46.28C72.0601 46.48 71.9901 46.65 71.8501 46.79C71.7101 46.93 71.5401 47 71.3401 47H68.8801C68.6801 47 68.5101 46.93 68.3701 46.79C68.2301 46.65 68.1601 46.48 68.1601 46.28V37.91C68.1601 37.01 68.0301 36.3 67.7701 35.78C67.5101 35.24 67.1601 34.86 66.7201 34.64C66.2801 34.42 65.7901 34.31 65.2501 34.31C64.8101 34.31 64.3701 34.42 63.9301 34.64C63.4901 34.86 63.1301 35.24 62.8501 35.78C62.5701 36.3 62.4301 37.01 62.4301 37.91V46.28C62.4301 46.48 62.3601 46.65 62.2201 46.79C62.0801 46.93 61.9101 47 61.7101 47H59.2501C59.0301 47 58.8501 46.93 58.7101 46.79C58.5901 46.65 58.5301 46.48 58.5301 46.28V37.91C58.5301 37.01 58.3901 36.3 58.1101 35.78C57.8301 35.24 57.4701 34.86 57.0301 34.64C56.5901 34.42 56.1201 34.31 55.6201 34.31C55.1601 34.31 54.7101 34.43 54.2701 34.67C53.8301 34.89 53.4701 35.26 53.1901 35.78C52.9101 36.3 52.7701 37.01 52.7701 37.91V46.28C52.7701 46.48 52.7001 46.65 52.5601 46.79C52.4201 46.93 52.2501 47 52.0501 47H49.5301ZM83.4559 47C83.2559 47 83.0859 46.93 82.9459 46.79C82.8059 46.65 82.7359 46.48 82.7359 46.28V32.12C82.7359 31.92 82.8059 31.75 82.9459 31.61C83.0859 31.47 83.2559 31.4 83.4559 31.4H85.9459C86.1659 31.4 86.3359 31.47 86.4559 31.61C86.5959 31.75 86.6659 31.92 86.6659 32.12V46.28C86.6659 46.48 86.5959 46.65 86.4559 46.79C86.3359 46.93 86.1659 47 85.9459 47H83.4559ZM83.3359 28.82C83.1159 28.82 82.9359 28.76 82.7959 28.64C82.6759 28.5 82.6159 28.32 82.6159 28.1V25.94C82.6159 25.74 82.6759 25.57 82.7959 25.43C82.9359 25.29 83.1159 25.22 83.3359 25.22H86.0659C86.2859 25.22 86.4659 25.29 86.6059 25.43C86.7459 25.57 86.8159 25.74 86.8159 25.94V28.1C86.8159 28.32 86.7459 28.5 86.6059 28.64C86.4659 28.76 86.2859 28.82 86.0659 28.82H83.3359ZM104.551 53.6C103.091 53.6 101.891 53.41 100.951 53.03C100.011 52.65 99.2715 52.19 98.7315 51.65C98.1915 51.11 97.8015 50.57 97.5615 50.03C97.3415 49.51 97.2215 49.1 97.2015 48.8C97.1815 48.6 97.2415 48.42 97.3815 48.26C97.5415 48.12 97.7215 48.05 97.9215 48.05H100.531C100.731 48.05 100.891 48.09 101.011 48.17C101.131 48.27 101.231 48.44 101.311 48.68C101.431 48.94 101.591 49.22 101.791 49.52C101.991 49.82 102.291 50.07 102.691 50.27C103.111 50.49 103.681 50.6 104.401 50.6C105.161 50.6 105.801 50.49 106.321 50.27C106.841 50.05 107.231 49.68 107.491 49.16C107.771 48.64 107.911 47.92 107.911 47V44.96C107.431 45.54 106.811 46.01 106.051 46.37C105.311 46.73 104.391 46.91 103.291 46.91C102.211 46.91 101.281 46.74 100.501 46.4C99.7215 46.04 99.0715 45.55 98.5515 44.93C98.0315 44.29 97.6315 43.54 97.3515 42.68C97.0915 41.82 96.9415 40.87 96.9015 39.83C96.8815 39.29 96.8815 38.75 96.9015 38.21C96.9415 37.21 97.0915 36.28 97.3515 35.42C97.6115 34.56 98.0015 33.81 98.5215 33.17C99.0615 32.51 99.7215 32 100.501 31.64C101.281 31.28 102.211 31.1 103.291 31.1C104.431 31.1 105.391 31.32 106.171 31.76C106.951 32.18 107.591 32.71 108.091 33.35V32.15C108.091 31.93 108.161 31.75 108.301 31.61C108.441 31.47 108.611 31.4 108.811 31.4H111.241C111.441 31.4 111.611 31.47 111.751 31.61C111.891 31.75 111.961 31.93 111.961 32.15L111.991 46.61C111.991 48.05 111.721 49.29 111.181 50.33C110.641 51.37 109.821 52.17 108.721 52.73C107.641 53.31 106.251 53.6 104.551 53.6ZM104.401 43.73C105.221 43.73 105.881 43.55 106.381 43.19C106.881 42.83 107.251 42.36 107.491 41.78C107.731 41.2 107.871 40.61 107.911 40.01C107.931 39.75 107.941 39.42 107.941 39.02C107.941 38.62 107.931 38.3 107.911 38.06C107.871 37.44 107.731 36.85 107.491 36.29C107.251 35.71 106.881 35.24 106.381 34.88C105.881 34.5 105.221 34.31 104.401 34.31C103.581 34.31 102.921 34.5 102.421 34.88C101.921 35.24 101.561 35.72 101.341 36.32C101.141 36.92 101.021 37.58 100.981 38.3C100.941 38.78 100.941 39.27 100.981 39.77C101.021 40.47 101.141 41.13 101.341 41.75C101.561 42.35 101.921 42.83 102.421 43.19C102.921 43.55 103.581 43.73 104.401 43.73ZM120.518 47.3C119.478 47.3 118.538 47.1 117.698 46.7C116.858 46.28 116.188 45.73 115.688 45.05C115.208 44.35 114.968 43.57 114.968 42.71C114.968 41.31 115.528 40.2 116.648 39.38C117.788 38.54 119.288 37.98 121.148 37.7L125.258 37.1V36.47C125.258 35.63 125.048 34.98 124.628 34.52C124.208 34.06 123.488 33.83 122.468 33.83C121.748 33.83 121.158 33.98 120.698 34.28C120.258 34.56 119.928 34.94 119.708 35.42C119.548 35.68 119.318 35.81 119.018 35.81H116.648C116.428 35.81 116.258 35.75 116.138 35.63C116.038 35.51 115.988 35.35 115.988 35.15C116.008 34.83 116.138 34.44 116.378 33.98C116.618 33.52 116.998 33.08 117.518 32.66C118.038 32.22 118.708 31.85 119.528 31.55C120.348 31.25 121.338 31.1 122.498 31.1C123.758 31.1 124.818 31.26 125.678 31.58C126.558 31.88 127.258 32.29 127.778 32.81C128.298 33.33 128.678 33.94 128.918 34.64C129.158 35.34 129.278 36.08 129.278 36.86V46.28C129.278 46.48 129.208 46.65 129.068 46.79C128.928 46.93 128.758 47 128.558 47H126.128C125.908 47 125.728 46.93 125.588 46.79C125.468 46.65 125.408 46.48 125.408 46.28V45.11C125.148 45.49 124.798 45.85 124.358 46.19C123.918 46.51 123.378 46.78 122.738 47C122.118 47.2 121.378 47.3 120.518 47.3ZM121.538 44.45C122.238 44.45 122.868 44.3 123.428 44C124.008 43.7 124.458 43.24 124.778 42.62C125.118 41.98 125.288 41.18 125.288 40.22V39.59L122.288 40.07C121.108 40.25 120.228 40.54 119.648 40.94C119.068 41.34 118.778 41.83 118.778 42.41C118.778 42.85 118.908 43.23 119.168 43.55C119.448 43.85 119.798 44.08 120.218 44.24C120.638 44.38 121.078 44.45 121.538 44.45ZM133.846 47C133.646 47 133.476 46.93 133.336 46.79C133.196 46.65 133.126 46.48 133.126 46.28V32.12C133.126 31.92 133.196 31.75 133.336 31.61C133.476 31.47 133.646 31.4 133.846 31.4H136.306C136.506 31.4 136.676 31.47 136.816 31.61C136.956 31.75 137.026 31.92 137.026 32.12V33.35C137.546 32.71 138.206 32.18 139.006 31.76C139.826 31.32 140.836 31.1 142.036 31.1C143.256 31.1 144.316 31.38 145.216 31.94C146.116 32.48 146.806 33.25 147.286 34.25C147.786 35.25 148.036 36.45 148.036 37.85V46.28C148.036 46.48 147.966 46.65 147.826 46.79C147.686 46.93 147.516 47 147.316 47H144.676C144.476 47 144.306 46.93 144.166 46.79C144.026 46.65 143.956 46.48 143.956 46.28V38.03C143.956 36.87 143.666 35.96 143.086 35.3C142.526 34.64 141.706 34.31 140.626 34.31C139.586 34.31 138.756 34.64 138.136 35.3C137.516 35.96 137.206 36.87 137.206 38.03V46.28C137.206 46.48 137.136 46.65 136.996 46.79C136.856 46.93 136.686 47 136.486 47H133.846ZM158.897 53.6C157.437 53.6 156.237 53.41 155.297 53.03C154.357 52.65 153.617 52.19 153.077 51.65C152.537 51.11 152.147 50.57 151.907 50.03C151.687 49.51 151.567 49.1 151.547 48.8C151.527 48.6 151.587 48.42 151.727 48.26C151.887 48.12 152.067 48.05 152.267 48.05H154.877C155.077 48.05 155.237 48.09 155.357 48.17C155.477 48.27 155.577 48.44 155.657 48.68C155.777 48.94 155.937 49.22 156.137 49.52C156.337 49.82 156.637 50.07 157.037 50.27C157.457 50.49 158.027 50.6 158.747 50.6C159.507 50.6 160.147 50.49 160.667 50.27C161.187 50.05 161.577 49.68 161.837 49.16C162.117 48.64 162.257 47.92 162.257 47V44.96C161.777 45.54 161.157 46.01 160.397 46.37C159.657 46.73 158.737 46.91 157.637 46.91C156.557 46.91 155.627 46.74 154.847 46.4C154.067 46.04 153.417 45.55 152.897 44.93C152.377 44.29 151.977 43.54 151.697 42.68C151.437 41.82 151.287 40.87 151.247 39.83C151.227 39.29 151.227 38.75 151.247 38.21C151.287 37.21 151.437 36.28 151.697 35.42C151.957 34.56 152.347 33.81 152.867 33.17C153.407 32.51 154.067 32 154.847 31.64C155.627 31.28 156.557 31.1 157.637 31.1C158.777 31.1 159.737 31.32 160.517 31.76C161.297 32.18 161.937 32.71 162.437 33.35V32.15C162.437 31.93 162.507 31.75 162.647 31.61C162.787 31.47 162.957 31.4 163.157 31.4H165.587C165.787 31.4 165.957 31.47 166.097 31.61C166.237 31.75 166.307 31.93 166.307 32.15L166.337 46.61C166.337 48.05 166.067 49.29 165.527 50.33C164.987 51.37 164.167 52.17 163.067 52.73C161.987 53.31 160.597 53.6 158.897 53.6ZM158.747 43.73C159.567 43.73 160.227 43.55 160.727 43.19C161.227 42.83 161.597 42.36 161.837 41.78C162.077 41.2 162.217 40.61 162.257 40.01C162.277 39.75 162.287 39.42 162.287 39.02C162.287 38.62 162.277 38.3 162.257 38.06C162.217 37.44 162.077 36.85 161.837 36.29C161.597 35.71 161.227 35.24 160.727 34.88C160.227 34.5 159.567 34.31 158.747 34.31C157.927 34.31 157.267 34.5 156.767 34.88C156.267 35.24 155.907 35.72 155.687 36.32C155.487 36.92 155.367 37.58 155.327 38.3C155.287 38.78 155.287 39.27 155.327 39.77C155.367 40.47 155.487 41.13 155.687 41.75C155.907 42.35 156.267 42.83 156.767 43.19C157.267 43.55 157.927 43.73 158.747 43.73Z" fill="#FBFBFB"/>
<path d="M208.5 24V49M208.5 49L221 36.5M208.5 49L196 36.5" stroke="#FBFBFB" stroke-width="4" stroke-linecap="round" stroke-linejoin="round"/>
<circle cx="208.5" cy="36.5" r="25.5" stroke="#FBFBFB" stroke-width="4"/>
</svg>
